<svg width="800" height="800" viewBox="0 0 800 800" fill="none" xmlns="http://www.w3.org/2000/svg">
<g clip-path="url(#clip0_0_3)">
<path d="M647.233 222.633C681.567 259.1 700 300 700 366.3C700 482.967 618.1 587.533 499 639.233L469.233 593.3C580.4 533.167 602.133 455.133 610.8 405.933C592.9 415.2 569.467 418.433 546.5 416.3C486.367 410.733 438.967 361.367 438.967 300C438.967 269.058 451.258 239.383 473.138 217.504C495.017 195.625 524.691 183.333 555.633 183.333C591.4 183.333 625.6 199.667 647.233 222.633ZM313.9 222.633C348.233 259.1 366.667 300 366.667 366.3C366.667 482.967 284.767 587.533 165.667 639.233L135.9 593.3C247.067 533.167 268.8 455.133 277.467 405.933C259.567 415.2 236.133 418.433 213.167 416.3C153.033 410.733 105.633 361.367 105.633 300C105.633 269.058 117.925 239.383 139.804 217.504C161.683 195.625 191.358 183.333 222.3 183.333C258.067 183.333 292.267 199.667 313.9 222.633Z" fill="#a9cc35"/>
</g>
<defs>
<clipPath id="clip0_0_3">
<rect width="800" height="800" fill="white" transform="matrix(-1 0 0 -1 800 800)"/>
</clipPath>
</defs>
</svg>
