<svg id="visual" viewBox="0 0 1920 1080" width="1920" height="1080" xmlns="http://www.w3.org/2000/svg" xmlns:xlink="http://www.w3.org/1999/xlink" version="1.1"><path d="M0 270L45.7 266.7C91.3 263.3 182.7 256.7 274.2 260.7C365.7 264.7 457.3 279.3 548.8 310.2C640.3 341 731.7 388 823 398.2C914.3 408.3 1005.7 381.7 1097 372C1188.3 362.3 1279.7 369.7 1371.2 379.8C1462.7 390 1554.3 403 1645.8 392.8C1737.3 382.7 1828.7 349.3 1874.3 332.7L1920 316L1920 0L1874.3 0C1828.7 0 1737.3 0 1645.8 0C1554.3 0 1462.7 0 1371.2 0C1279.7 0 1188.3 0 1097 0C1005.7 0 914.3 0 823 0C731.7 0 640.3 0 548.8 0C457.3 0 365.7 0 274.2 0C182.7 0 91.3 0 45.7 0L0 0Z" fill="#ffd700"></path><path d="M0 248L45.7 251.3C91.3 254.7 182.7 261.3 274.2 235.3C365.7 209.3 457.3 150.7 548.8 143.5C640.3 136.3 731.7 180.7 823 196C914.3 211.3 1005.7 197.7 1097 176.2C1188.3 154.7 1279.7 125.3 1371.2 110.5C1462.7 95.7 1554.3 95.3 1645.8 123.5C1737.3 151.7 1828.7 208.3 1874.3 236.7L1920 265L1920 0L1874.3 0C1828.7 0 1737.3 0 1645.8 0C1554.3 0 1462.7 0 1371.2 0C1279.7 0 1188.3 0 1097 0C1005.7 0 914.3 0 823 0C731.7 0 640.3 0 548.8 0C457.3 0 365.7 0 274.2 0C182.7 0 91.3 0 45.7 0L0 0Z" fill="#001122"></path></svg>